<svg width="800" height="600" viewBox="0 0 800 600" fill="none" xmlns="http://www.w3.org/2000/svg">
  <rect width="800" height="600" fill="#F3F4F6"/>
  <rect x="100" y="150" width="600" height="350" fill="#E5E7EB" stroke="#D1D5DB" stroke-width="2"/>
  <polygon points="100,150 400,50 700,150" fill="#9CA3AF" stroke="#6B7280" stroke-width="2"/>
  <rect x="200" y="250" width="120" height="200" fill="#6B7280"/>
  <rect x="210" y="260" width="100" height="80" fill="#374151"/>
  <circle cx="300" cy="300" r="5" fill="#F3F4F6"/>
  <rect x="400" y="200" width="80" height="80" fill="#60A5FA"/>
  <rect x="410" y="210" width="25" height="25" fill="#3B82F6"/>
  <rect x="445" y="210" width="25" height="25" fill="#3B82F6"/>
  <rect x="410" y="245" width="25" height="25" fill="#3B82F6"/>
  <rect x="445" y="245" width="25" height="25" fill="#3B82F6"/>
  <rect x="520" y="200" width="80" height="80" fill="#60A5FA"/>
  <rect x="530" y="210" width="25" height="25" fill="#3B82F6"/>
  <rect x="565" y="210" width="25" height="25" fill="#3B82F6"/>
  <rect x="530" y="245" width="25" height="25" fill="#3B82F6"/>
  <rect x="565" y="245" width="25" height="25" fill="#3B82F6"/>
  <text x="400" y="320" text-anchor="middle" fill="#6B7280" font-family="Arial, sans-serif" font-size="24" font-weight="bold">บ้านตัวอย่าง</text>
  <text x="400" y="350" text-anchor="middle" fill="#9CA3AF" font-family="Arial, sans-serif" font-size="16">House Placeholder</text>
</svg>